<svg id="Mono" xmlns="http://www.w3.org/2000/svg" width="48.001" height="48" viewBox="0 0 48.001 48">
  <g id="mono-2" data-name="mono" transform="translate(0 0.75)">
    <path id="Path_7" data-name="Path 7" d="M26.36,37.2c-.9-.965-2.123-.965-3.281-1.287A18.15,18.15,0,0,0,18.9,35.4c-2.059-.064-2.7,1.029-2.638,2.9a39.706,39.706,0,0,0,.45,4.761,4.245,4.245,0,0,0,2.638,3.474c.643.257.643.257.579,1.029a21.307,21.307,0,0,0-.386,4.5c0,.257,0,.45-.322.322A13.654,13.654,0,0,1,13.493,48.2a.9.9,0,0,1-.193-.579c.386-3.989.836-7.977,2.445-11.709a15.457,15.457,0,0,1,3.6-5.211,20.475,20.475,0,0,1,5.082-3.667c.322-.193.45-.193.579.257a50.869,50.869,0,0,1,1.222,8.235A13.584,13.584,0,0,1,26.36,37.2Z" transform="translate(-4.736 -9.588)" fill="#16a2b9"/>
    <path id="Path_8" data-name="Path 8" d="M47.942,50.624a31.329,31.329,0,0,0-.386-3.538.34.34,0,0,1,.257-.45,4.355,4.355,0,0,0,3.024-3.8,27.332,27.332,0,0,0,.386-5.147,1.781,1.781,0,0,0-.064-.579A1.973,1.973,0,0,0,49.1,35.377a21.793,21.793,0,0,0-5.4.643,4.375,4.375,0,0,0-2.316.965c-.193.193-.257-.064-.193-.193.064-.836.129-1.608.193-2.445a45.854,45.854,0,0,1,1.158-7.141c.064-.322.193-.45.515-.257a20.757,20.757,0,0,1,4.761,3.41A17.847,17.847,0,0,1,52.9,39.3a57.455,57.455,0,0,1,1.287,8.106A1.32,1.32,0,0,1,53.86,48.5a13.49,13.49,0,0,1-5.4,3.86c-.257.129-.386.064-.386-.257A5.76,5.76,0,0,1,47.942,50.624Z" transform="translate(-14.674 -9.57)" fill="#16a2b9"/>
    <path id="Path_24" data-name="Path 24" d="M35.459,23.883a6.066,6.066,0,0,1,2.831.386A.791.791,0,0,1,38.8,25.3a71.371,71.371,0,0,0-1.287,9.779C37.389,37.071,37.26,39,37.26,41c0,.9-.257,1.158-1.158,1.158H34.558a.728.728,0,0,1-.772-.708c0-.193-.064-.386-.064-.579-.129-3.86-.322-7.784-.836-11.644a39.683,39.683,0,0,0-.708-3.989.765.765,0,0,1,.45-.965A5.343,5.343,0,0,1,35.459,23.883Z" transform="translate(-11.455 -8.497)" fill="#171a26"/>
    <path id="Path_25" data-name="Path 25" d="M67.281,1.924A33.907,33.907,0,0,1,63.356,17.75a27.041,27.041,0,0,1-4.246,6.176c-.257.322-.386.257-.708,0a21.569,21.569,0,0,1-4.246-6.176.464.464,0,0,1,.257-.708,19,19,0,0,0,2.9-2.187,27.179,27.179,0,0,0,5.983-7.27A44.764,44.764,0,0,0,66.509.445.063.063,0,0,1,66.573.38c.064-.193.129-.45.386-.386s.193.322.193.515A5.278,5.278,0,0,1,67.281,1.924ZM66.123,4.755c-.129.064-.129.064-.193.064-.322.643-.579,1.287-.9,1.866a26.406,26.406,0,0,1-8.106,10.1.611.611,0,0,0-.257.708,4.33,4.33,0,0,0,.9,1.8c.257.322.386.322.643.064A26.248,26.248,0,0,0,65.544,6.878,10.237,10.237,0,0,0,66.123,4.755Z" transform="translate(-19.28 0.016)" fill="#171a26"/>
    <path id="Path_26" data-name="Path 26" d="M0,1.989V.509C0,.316-.068.059.189-.006S.511.187.575.38c.45,1.222.9,2.445,1.415,3.6a32.541,32.541,0,0,0,4.375,7.334,26.374,26.374,0,0,0,6.3,5.661c.386.257.45.45.257.9a21.876,21.876,0,0,1-4.246,6.047c-.257.257-.386.193-.579,0a26.526,26.526,0,0,1-3.345-4.632,57.465,57.465,0,0,1-2.509-5.34A32.841,32.841,0,0,1,.125,4.369C.06,3.533,0,2.761,0,1.989ZM1.283,4.755a.383.383,0,0,0,0,.45A27.966,27.966,0,0,0,5.271,14.92a23.82,23.82,0,0,0,3.86,4.568c.129.129.257.257.45,0a5.351,5.351,0,0,0,1.029-1.994.612.612,0,0,0-.257-.643,20.9,20.9,0,0,1-2.831-2.445A30.264,30.264,0,0,1,1.6,5.334,1.044,1.044,0,0,0,1.283,4.755Z" transform="translate(0.011 0.016)" fill="#171a26"/>
    <path id="Path_27" data-name="Path 27" d="M26.025,45.378c0,.45.064.9.064,1.287.064.386-.129.386-.386.322a1.088,1.088,0,0,1-.643-.45c-.322-.579-.643-1.222-.965-1.8a2.122,2.122,0,0,0-1.415-1.158,18.818,18.818,0,0,0-3.8-.708c-.836-.064-.965.064-1.029.9a15.236,15.236,0,0,0,.257,3.41,2.775,2.775,0,0,0,2.831,2.638c1.094.129,1.094.129.965,1.222a61.284,61.284,0,0,0-.515,9.071.657.657,0,0,1-.965.643A24.55,24.55,0,0,1,12.9,56.379a.642.642,0,0,1-.257-.322c-.193-.193-.515-.386-.579-.772a4.881,4.881,0,0,1,.064-1.93c.129-.386.386-.386.579-.064a12.481,12.481,0,0,0,6.3,4.568c.322.129.386.064.386-.257a48.722,48.722,0,0,1,.386-6.112c0-.257-.129-.322-.322-.386a3.934,3.934,0,0,1-2.573-2.059,6.755,6.755,0,0,1-.515-2.252c-.129-1.351-.193-2.766-.193-4.117a4.344,4.344,0,0,1,.129-.9,1.506,1.506,0,0,1,1.415-1.094,17.085,17.085,0,0,1,4.761.45c.386.064.772.193,1.158.257a3.017,3.017,0,0,1,2.316,2.9,7.014,7.014,0,0,1,.064,1.094Z" transform="translate(-4.273 -14.488)" fill="#171a26"/>
    <path id="Path_28" data-name="Path 28" d="M45.361,58.034c-.064-2.187-.193-4.31-.45-6.5-.064-.322-.064-.643-.129-.9-.064-.515.064-.643.579-.772l1.158-.193a2.457,2.457,0,0,0,2.059-2.059,14.45,14.45,0,0,0,.386-4.053c0-.579-.129-.708-.708-.708a19.04,19.04,0,0,0-3.345.45,3.13,3.13,0,0,0-2.573,2.187,5.322,5.322,0,0,1-.579,1.029.751.751,0,0,1-.386.386c-.45.193-.643.129-.579-.386.064-.9.064-1.737.129-2.638a3.224,3.224,0,0,1,1.866-2.38,25.8,25.8,0,0,1,5.854-.9,1.765,1.765,0,0,1,1.994,1.994,35.512,35.512,0,0,1-.386,5.211,3.593,3.593,0,0,1-2.573,3.088c-.708.257-.708.257-.643.965a54.409,54.409,0,0,1,.322,5.6c0,.322.064.45.386.322a13.408,13.408,0,0,0,5.468-3.538c.257-.322.515-.708.772-1.029.064-.129.129-.322.322-.257s.257.193.322.386a6.059,6.059,0,0,1,.064,1.866c0,.257-.322.45-.515.643a19.68,19.68,0,0,1-5.275,3.6c-.836.386-1.673.772-2.509,1.094-.708.322-1.029,0-1.029-.708C45.361,59.321,45.361,58.678,45.361,58.034Z" transform="translate(-14.538 -14.471)" fill="#171a26"/>
    <path id="Path_29" data-name="Path 29" d="M14.085,38.662a20.153,20.153,0,0,0-1.222-3.474c-.193-.386.064-.643.322-.9.643-.643,1.287-1.351,1.866-2.059a18.387,18.387,0,0,0,2.959-4.761c.257-.579.515-.708,1.094-.515a14.53,14.53,0,0,0,3.41.515A19.625,19.625,0,0,0,14.085,38.662Z" transform="translate(-4.556 -9.574)" fill="#171a26"/>
    <path id="Path_30" data-name="Path 30" d="M55.2,38.626a19.081,19.081,0,0,0-8.3-11.194c.708-.129,1.287-.193,1.866-.257a6.1,6.1,0,0,0,1.48-.322c.579-.193.772-.064,1.029.45a33.464,33.464,0,0,0,1.608,2.959A22.14,22.14,0,0,0,55.842,33.8c.643.643.9,1.158.386,1.994a6.779,6.779,0,0,0-.772,2.445C55.328,38.433,55.328,38.561,55.2,38.626Z" transform="translate(-16.72 -9.537)" fill="#171a26"/>
  </g>
  <rect id="Rectangle_5931" data-name="Rectangle 5931" width="48" height="48" transform="translate(0.001)" fill="none" opacity="0"/>
</svg>
